<svg width="12" height="20" viewBox="0 0 12 20" fill="none" xmlns="http://www.w3.org/2000/svg">
<path d="M6.00135 3.06065C6.82889 3.06065 7.57997 3.40438 8.12583 3.9611C8.67001 4.51781 9.0065 5.28506 9.0065 6.13048C9.0065 6.9759 8.67001 7.74391 8.12503 8.3007C7.58005 8.8566 6.82977 9.20033 6.00137 9.20033C5.17383 9.20033 4.42275 8.85659 3.87689 8.29988C3.33271 7.74235 2.99622 6.97592 2.99622 6.1305C2.99622 5.28432 3.33271 4.51707 3.87769 3.96112C4.42026 3.40523 5.17212 3.06149 6.00135 3.06149V3.06065ZM8.31563 15.7567C8.78737 15.8793 9.20435 16.0388 9.54325 16.2263C10.2396 16.6095 10.6517 17.1309 10.6517 17.7394C10.6517 18.4631 10.0577 19.0699 9.09888 19.4647C8.2955 19.7952 7.19827 20 6.00129 20C4.80345 20 3.707 19.7952 2.90369 19.4647C1.94414 19.0699 1.35084 18.4639 1.35084 17.7394C1.35084 17.1309 1.763 16.6095 2.45932 16.2263C2.79822 16.0388 3.21523 15.8793 3.68694 15.7567C3.91396 16.0997 4.14337 16.4434 4.36959 16.7888C3.81735 16.8948 3.34644 17.0536 2.99624 17.246C2.67666 17.422 2.4883 17.5955 2.4883 17.7386C2.4883 17.9425 2.80869 18.176 3.3263 18.389C4.00008 18.6661 4.94517 18.8372 6.00205 18.8372C7.05893 18.8372 8.00491 18.6653 8.6778 18.389C9.19541 18.176 9.5158 17.9425 9.5158 17.7386C9.5158 17.5955 9.32663 17.4211 9.00786 17.246C8.65849 17.0536 8.18675 16.8948 7.63452 16.7888C7.86073 16.4426 8.08934 16.0997 8.31716 15.7567H8.31563ZM10.2243 1.7746C9.14076 0.677614 7.64828 0 6.00046 0C4.35265 0 2.86021 0.677614 1.77664 1.7746C0.697129 2.86748 0.0209378 4.37638 0 6.05821C0 8.64273 2.35632 12.1961 4.32439 15.1648C4.94826 16.1055 5.53351 16.9879 6.0004 17.7741C6.4673 16.9888 7.05255 16.1056 7.67561 15.1656C9.64464 12.1969 12 8.64441 12 6.07147C11.9863 4.39226 11.3085 2.8735 10.2234 1.77481L10.2243 1.7746Z" fill="#042E60"/>
</svg>
